<svg xmlns="http://www.w3.org/2000/svg" viewBox="0 0 1200 900"><rect width="1200" height="900" rx="40" fill="#0A1622"/><circle cx="948" cy="170" r="150" fill="#30DD91" opacity="0.15"/><rect x="118" y="118" width="964" height="664" rx="34" fill="#101F2C" stroke="#213444"/><rect x="174" y="174" width="518" height="552" rx="28" fill="#0C1824" stroke="#223646"/><rect x="726" y="174" width="300" height="250" rx="28" fill="#0C1824" stroke="#223646"/><rect x="726" y="446" width="300" height="280" rx="28" fill="#0C1824" stroke="#223646"/><rect x="226" y="228" width="196" height="18" rx="9" fill="#F5FBF8"/><rect x="226" y="264" width="282" height="12" rx="6" fill="#718696"/><rect x="226" y="334" width="420" height="18" rx="9" fill="#163141"/><rect x="226" y="368" width="388" height="18" rx="9" fill="#163141"/><rect x="226" y="438" width="186" height="28" rx="14" fill="#30DD91"/><rect x="226" y="490" width="240" height="16" rx="8" fill="#F5FBF8"/><rect x="226" y="524" width="308" height="12" rx="6" fill="#718696"/><rect x="770" y="230" width="144" height="18" rx="9" fill="#F5FBF8"/><rect x="770" y="266" width="214" height="12" rx="6" fill="#718696"/><circle cx="876" cy="590" r="86" fill="#102638" stroke="#2E5569"/><path d="M862 590h28M876 576v28" stroke="#30DD91" stroke-width="12" stroke-linecap="round"/></svg>
