<svg xmlns="http://www.w3.org/2000/svg" viewBox="0 0 1200 900"><rect width="1200" height="900" rx="40" fill="#0A1622"/><rect x="110" y="110" width="980" height="680" rx="34" fill="#101F2C" stroke="#213444"/><rect x="164" y="166" width="284" height="250" rx="26" fill="#0C1824" stroke="#223646"/><rect x="458" y="166" width="284" height="250" rx="26" fill="#0C1824" stroke="#223646"/><rect x="752" y="166" width="284" height="250" rx="26" fill="#0C1824" stroke="#223646"/><rect x="164" y="430" width="284" height="304" rx="26" fill="#0C1824" stroke="#223646"/><rect x="458" y="430" width="578" height="304" rx="26" fill="#0C1824" stroke="#223646"/><rect x="202" y="210" width="134" height="16" rx="8" fill="#F5FBF8"/><rect x="202" y="246" width="182" height="12" rx="6" fill="#728696"/><rect x="496" y="210" width="134" height="16" rx="8" fill="#F5FBF8"/><rect x="496" y="246" width="182" height="12" rx="6" fill="#728696"/><rect x="790" y="210" width="134" height="16" rx="8" fill="#F5FBF8"/><rect x="790" y="246" width="182" height="12" rx="6" fill="#728696"/><rect x="496" y="506" width="186" height="16" rx="8" fill="#F5FBF8"/><rect x="496" y="544" width="420" height="14" rx="7" fill="#728696"/><rect x="496" y="592" width="310" height="24" rx="12" fill="#30DD91"/><rect x="202" y="514" width="186" height="14" rx="7" fill="#728696"/><rect x="202" y="548" width="160" height="14" rx="7" fill="#173040"/></svg>
