<svg xmlns="http://www.w3.org/2000/svg" viewBox="0 0 1200 900"><rect width="1200" height="900" rx="40" fill="#0A1622"/><circle cx="920" cy="140" r="160" fill="#30DD91" opacity="0.16"/><rect x="116" y="112" width="968" height="676" rx="34" fill="#101F2C" stroke="#213444"/><rect x="174" y="174" width="332" height="552" rx="28" fill="#0C1824" stroke="#223646"/><rect x="562" y="174" width="462" height="162" rx="28" fill="#0C1824" stroke="#223646"/><rect x="562" y="370" width="462" height="356" rx="28" fill="#0C1824" stroke="#223646"/><rect x="214" y="232" width="172" height="16" rx="8" fill="#F5FBF8"/><rect x="214" y="264" width="220" height="12" rx="6" fill="#6F8695"/><rect x="214" y="324" width="240" height="18" rx="9" fill="#173040"/><rect x="214" y="358" width="204" height="18" rx="9" fill="#173040"/><rect x="214" y="418" width="154" height="24" rx="12" fill="#30DD91"/><rect x="612" y="224" width="142" height="16" rx="8" fill="#F5FBF8"/><rect x="612" y="256" width="280" height="12" rx="6" fill="#718796"/><rect x="612" y="430" width="162" height="16" rx="8" fill="#F5FBF8"/><rect x="612" y="468" width="328" height="12" rx="6" fill="#728696"/><circle cx="900" cy="586" r="74" fill="#102638" stroke="#2C5568"/><circle cx="900" cy="586" r="26" fill="#30DD91"/></svg>
