<svg xmlns="http://www.w3.org/2000/svg" viewBox="0 0 1200 900"><rect width="1200" height="900" rx="40" fill="#0A1622"/><rect x="118" y="118" width="964" height="664" rx="34" fill="#101F2C" stroke="#213444"/><rect x="172" y="174" width="364" height="552" rx="28" fill="#0C1824" stroke="#223646"/><rect x="574" y="174" width="454" height="250" rx="28" fill="#0C1824" stroke="#223646"/><rect x="574" y="448" width="454" height="278" rx="28" fill="#0C1824" stroke="#223646"/><rect x="218" y="224" width="164" height="16" rx="8" fill="#F5FBF8"/><rect x="218" y="258" width="232" height="12" rx="6" fill="#718696"/><rect x="218" y="338" width="262" height="18" rx="9" fill="#173040"/><rect x="218" y="372" width="214" height="18" rx="9" fill="#173040"/><rect x="218" y="448" width="150" height="26" rx="13" fill="#30DD91"/><path d="M670 300h138" stroke="#718696" stroke-width="12" stroke-linecap="round"/><path d="M808 300l-22-18m22 18-22 18" stroke="#30DD91" stroke-width="12" stroke-linecap="round" stroke-linejoin="round"/><path d="M848 300h138" stroke="#718696" stroke-width="12" stroke-linecap="round"/><path d="M986 300l-22-18m22 18-22 18" stroke="#30DD91" stroke-width="12" stroke-linecap="round" stroke-linejoin="round"/><rect x="626" y="508" width="144" height="16" rx="8" fill="#F5FBF8"/><rect x="626" y="542" width="252" height="12" rx="6" fill="#718696"/><rect x="626" y="594" width="190" height="22" rx="11" fill="#173040"/><rect x="838" y="594" width="138" height="22" rx="11" fill="#30DD91"/></svg>
