<svg width="800" height="560" viewBox="0 0 800 560" fill="none" xmlns="http://www.w3.org/2000/svg">
  <defs>
    <linearGradient id="narrative-bg" x1="102" y1="62" x2="700" y2="490" gradientUnits="userSpaceOnUse">
      <stop stop-color="#102131"/>
      <stop offset="1" stop-color="#08121C"/>
    </linearGradient>
    <linearGradient id="narrative-preview" x1="188" y1="156" x2="470" y2="382" gradientUnits="userSpaceOnUse">
      <stop stop-color="#F4A259"/>
      <stop offset="0.58" stop-color="#F5EEE6"/>
      <stop offset="1" stop-color="#AAC8DF"/>
    </linearGradient>
  </defs>

  <rect width="800" height="560" rx="34" fill="#071019"/>
  <circle cx="674" cy="96" r="92" fill="#F4A259" fill-opacity="0.16"/>
  <rect x="54" y="52" width="692" height="456" rx="28" fill="url(#narrative-bg)" stroke="#2D4458"/>
  <rect x="84" y="82" width="632" height="30" rx="15" fill="#0D1824"/>
  <rect x="112" y="90" width="140" height="14" rx="7" fill="#E9E3DB" fill-opacity="0.2"/>
  <rect x="84" y="140" width="430" height="330" rx="24" fill="#101F2E" stroke="#314A60"/>
  <rect x="112" y="168" width="374" height="190" rx="22" fill="url(#narrative-preview)"/>
  <rect x="138" y="194" width="140" height="12" rx="6" fill="#0B1723" fill-opacity="0.72"/>
  <rect x="138" y="220" width="190" height="10" rx="5" fill="#0B1723" fill-opacity="0.2"/>
  <rect x="138" y="260" width="92" height="34" rx="17" fill="#0D1B29"/>
  <rect x="112" y="388" width="168" height="48" rx="18" fill="#152A3C"/>
  <rect x="298" y="388" width="188" height="48" rx="18" fill="#F4A259"/>
  <rect x="542" y="140" width="144" height="330" rx="24" fill="#0D1824" stroke="#2B4357"/>
  <rect x="564" y="172" width="100" height="14" rx="7" fill="#E9E3DB" fill-opacity="0.2"/>
  <rect x="564" y="210" width="100" height="124" rx="20" fill="#13293D"/>
  <rect x="582" y="234" width="64" height="10" rx="5" fill="#E9E3DB" fill-opacity="0.2"/>
  <rect x="582" y="274" width="42" height="40" rx="14" fill="#F4A259"/>
  <rect x="564" y="360" width="100" height="78" rx="18" fill="#F2ECE4"/>
</svg>
