<svg width="1400" height="980" viewBox="0 0 1400 980" fill="none" xmlns="http://www.w3.org/2000/svg">
  <rect width="1400" height="980" rx="48" fill="#08111B"/>
  <rect x="78" y="86" width="1244" height="808" rx="40" fill="#102132"/>
  <rect x="126" y="136" width="474" height="708" rx="32" fill="#13283F"/>
  <rect x="170" y="186" width="386" height="122" rx="22" fill="#86F2C6"/>
  <rect x="170" y="340" width="386" height="212" rx="30" fill="#1C3A55"/>
  <rect x="170" y="584" width="182" height="210" rx="30" fill="#E8F5FF"/>
  <rect x="374" y="584" width="182" height="210" rx="30" fill="#86F2C6"/>
  <rect x="642" y="136" width="632" height="336" rx="34" fill="#E8F5FF"/>
  <circle cx="1122" cy="304" r="138" fill="#86F2C6"/>
  <rect x="694" y="198" width="338" height="34" rx="17" fill="#102132"/>
  <rect x="694" y="260" width="468" height="24" rx="12" fill="#102132" fill-opacity="0.36"/>
  <rect x="694" y="306" width="424" height="24" rx="12" fill="#102132" fill-opacity="0.36"/>
  <rect x="694" y="352" width="286" height="24" rx="12" fill="#102132" fill-opacity="0.36"/>
  <rect x="642" y="508" width="292" height="336" rx="32" fill="#173249"/>
  <rect x="958" y="508" width="316" height="144" rx="32" fill="#86F2C6"/>
  <rect x="958" y="676" width="316" height="168" rx="32" fill="#1F4566"/>
  <path d="M737 622H847V732H737V622Z" fill="#E8F5FF"/>
  <path d="M880 618L880 844" stroke="#86F2C6" stroke-width="22" stroke-linecap="round"/>
</svg>
