<svg width="1400" height="980" viewBox="0 0 1400 980" fill="none" xmlns="http://www.w3.org/2000/svg">
  <rect width="1400" height="980" rx="48" fill="#F6EFE7"/>
  <rect x="82" y="88" width="460" height="804" rx="32" fill="#FFF7EE"/>
  <rect x="120" y="128" width="384" height="134" rx="20" fill="#13202B"/>
  <rect x="120" y="298" width="384" height="220" rx="28" fill="#DCC8BA"/>
  <rect x="120" y="546" width="180" height="302" rx="28" fill="#C96C47"/>
  <rect x="324" y="546" width="180" height="302" rx="28" fill="#13202B"/>
  <rect x="586" y="88" width="734" height="388" rx="36" fill="#13202B"/>
  <circle cx="1134" cy="284" r="126" fill="#86F2C6"/>
  <rect x="650" y="154" width="340" height="38" rx="19" fill="#FFF7EE" fill-opacity="0.92"/>
  <rect x="650" y="222" width="470" height="26" rx="13" fill="#FFF7EE" fill-opacity="0.42"/>
  <rect x="650" y="270" width="420" height="26" rx="13" fill="#FFF7EE" fill-opacity="0.42"/>
  <rect x="650" y="318" width="280" height="26" rx="13" fill="#FFF7EE" fill-opacity="0.42"/>
  <rect x="586" y="514" width="350" height="378" rx="32" fill="#E4D7CC"/>
  <rect x="968" y="514" width="352" height="178" rx="32" fill="#FFF7EE"/>
  <rect x="968" y="714" width="352" height="178" rx="32" fill="#C96C47"/>
  <path d="M699 621L824 737L699 853" stroke="#13202B" stroke-width="24" stroke-linecap="round"/>
</svg>
