<svg xmlns="http://www.w3.org/2000/svg" width="1440" height="900" viewBox="0 0 1440 900" role="img" aria-label="Fundo promocional">
  <defs>
    <linearGradient id="bg" x1="0" y1="0" x2="1" y2="1">
      <stop offset="0" stop-color="#EAF4FF"/>
      <stop offset="1" stop-color="#FFFFFF"/>
    </linearGradient>
    <linearGradient id="blob" x1="0" y1="0" x2="1" y2="0">
      <stop offset="0" stop-color="#0086FF" stop-opacity="0.24"/>
      <stop offset="1" stop-color="#0086FF" stop-opacity="0.04"/>
    </linearGradient>
  </defs>
  <rect width="1440" height="900" fill="url(#bg)"/>
  <circle cx="1150" cy="210" r="260" fill="url(#blob)"/>
  <circle cx="1260" cy="680" r="200" fill="url(#blob)"/>
  <circle cx="220" cy="720" r="240" fill="url(#blob)"/>
  <path d="M980 330c-80 0-146 66-146 146v90c0 110 90 200 200 200h36c110 0 200-90 200-200v-90c0-80-66-146-146-146h-144z" fill="#0086FF" fill-opacity="0.10"/>
  <path d="M1010 350h84c44 0 80 36 80 80v68c0 76-62 138-138 138h-10c-76 0-138-62-138-138v-68c0-44 36-80 80-80h42z" fill="#0086FF" fill-opacity="0.18"/>
  <rect x="1038" y="320" width="84" height="44" rx="22" fill="#0086FF" fill-opacity="0.22"/>
</svg>

