<svg xmlns="http://www.w3.org/2000/svg" viewBox="0 0 1600 1100">
  <defs>
    <linearGradient id="bg" x1="0" x2="1" y1="0" y2="1">
      <stop offset="0%" stop-color="#07121C"/>
      <stop offset="100%" stop-color="#102333"/>
    </linearGradient>
    <linearGradient id="green" x1="0" x2="1" y1="0" y2="1">
      <stop offset="0%" stop-color="#49F0A6"/>
      <stop offset="100%" stop-color="#18BF79"/>
    </linearGradient>
  </defs>
  <rect width="1600" height="1100" fill="url(#bg)"/>
  <circle cx="1270" cy="230" r="230" fill="#2FDD90" opacity="0.16"/>
  <circle cx="320" cy="910" r="250" fill="#4F7FFF" opacity="0.12"/>
  <g opacity="0.75">
    <rect x="690" y="150" width="700" height="700" rx="36" fill="#0D1925" stroke="#213444"/>
    <rect x="740" y="210" width="270" height="46" rx="16" fill="#132535"/>
    <rect x="1036" y="210" width="304" height="46" rx="16" fill="#132535"/>
    <rect x="740" y="292" width="600" height="170" rx="28" fill="#101F2C" stroke="#1B3242"/>
    <circle cx="792" cy="347" r="22" fill="#30DD91"/>
    <rect x="832" y="326" width="242" height="18" rx="9" fill="#F5FBF8"/>
    <rect x="832" y="360" width="360" height="14" rx="7" fill="#6E8696"/>
    <rect x="832" y="392" width="430" height="14" rx="7" fill="#223847"/>
    <rect x="740" y="500" width="292" height="280" rx="28" fill="#101F2C" stroke="#1B3242"/>
    <rect x="766" y="530" width="96" height="10" rx="5" fill="#8DA3B2"/>
    <rect x="766" y="570" width="54" height="148" rx="18" fill="#173040"/>
    <rect x="834" y="624" width="54" height="94" rx="18" fill="#23566E"/>
    <rect x="902" y="592" width="54" height="126" rx="18" fill="url(#green)"/>
    <rect x="1048" y="500" width="292" height="280" rx="28" fill="#101F2C" stroke="#1B3242"/>
    <rect x="1082" y="538" width="168" height="16" rx="8" fill="#F5FBF8"/>
    <rect x="1082" y="580" width="224" height="14" rx="7" fill="#708697"/>
    <rect x="1082" y="624" width="216" height="16" rx="8" fill="#1A3341"/>
    <rect x="1082" y="658" width="170" height="16" rx="8" fill="#1A3341"/>
    <rect x="1082" y="706" width="126" height="26" rx="13" fill="#30DD91"/>
  </g>
  <g transform="translate(360 540) rotate(-8)">
    <rect width="220" height="420" rx="34" fill="#09131E" stroke="#264255"/>
    <rect x="20" y="64" width="180" height="46" rx="16" fill="#132535"/>
    <rect x="20" y="136" width="180" height="102" rx="22" fill="#10202D"/>
    <rect x="42" y="166" width="92" height="12" rx="6" fill="#F5FBF8"/>
    <rect x="42" y="194" width="136" height="10" rx="5" fill="#6F8896"/>
    <rect x="20" y="264" width="180" height="64" rx="22" fill="#10202D"/>
    <rect x="42" y="290" width="104" height="12" rx="6" fill="#30DD91"/>
    <rect x="20" y="352" width="180" height="42" rx="16" fill="#132535"/>
  </g>
</svg>
