<svg width="1200" height="630" viewBox="0 0 1200 630" fill="none" xmlns="http://www.w3.org/2000/svg">
  <rect width="1200" height="630" rx="36" fill="#13202B"/>
  <circle cx="1016" cy="116" r="118" fill="#86F2C6" fill-opacity="0.9"/>
  <circle cx="126" cy="562" r="144" fill="#C96C47" fill-opacity="0.84"/>
  <rect x="80" y="76" width="144" height="144" rx="32" fill="#FFF7EE"/>
  <path d="M118 172L154 92H186L222 172H197L187 147H153L143 172H118Z" fill="#13202B"/>
  <path d="M164 126L155 144H187L178 126H164Z" fill="#C96C47"/>
  <path d="M296 146H762" stroke="#FFF7EE" stroke-width="24" stroke-linecap="round"/>
  <path d="M296 204H1022" stroke="#FFF7EE" stroke-width="16" stroke-linecap="round" opacity="0.45"/>
  <path d="M296 246H930" stroke="#FFF7EE" stroke-width="16" stroke-linecap="round" opacity="0.45"/>
  <path d="M296 288H818" stroke="#FFF7EE" stroke-width="16" stroke-linecap="round" opacity="0.45"/>
  <rect x="296" y="354" width="276" height="180" rx="28" fill="#FFF7EE"/>
  <rect x="596" y="354" width="238" height="180" rx="28" fill="#1B3044"/>
  <rect x="858" y="354" width="262" height="180" rx="28" fill="#C96C47"/>
</svg>
