<svg width="1600" height="1080" viewBox="0 0 1600 1080" fill="none" xmlns="http://www.w3.org/2000/svg">
  <rect width="1600" height="1080" rx="48" fill="#061018"/>
  <rect x="44" y="44" width="1512" height="992" rx="34" fill="#0B1722" stroke="#203242" stroke-width="2"/>
  <rect x="78" y="78" width="270" height="924" rx="28" fill="#0F1F2C"/>
  <rect x="110" y="116" width="206" height="70" rx="20" fill="#12283A"/>
  <circle cx="150" cy="151" r="18" fill="#F4A259"/>
  <rect x="182" y="135" width="94" height="12" rx="6" fill="#F2EADB"/>
  <rect x="182" y="156" width="62" height="10" rx="5" fill="#7E93A8"/>
  <rect x="110" y="240" width="206" height="86" rx="22" fill="#132737"/>
  <rect x="134" y="266" width="92" height="10" rx="5" fill="#F2EADB"/>
  <rect x="134" y="288" width="130" height="9" rx="4.5" fill="#6F8498"/>
  <rect x="110" y="346" width="206" height="86" rx="22" fill="#132737"/>
  <rect x="134" y="372" width="78" height="10" rx="5" fill="#F2EADB"/>
  <rect x="134" y="394" width="140" height="9" rx="4.5" fill="#6F8498"/>
  <rect x="110" y="452" width="206" height="86" rx="22" fill="#F4A259" fill-opacity="0.16" stroke="#F4A259"/>
  <rect x="134" y="478" width="82" height="10" rx="5" fill="#F4A259"/>
  <rect x="134" y="500" width="128" height="9" rx="4.5" fill="#E9D8C3"/>
  <rect x="110" y="558" width="206" height="86" rx="22" fill="#132737"/>
  <rect x="134" y="584" width="66" height="10" rx="5" fill="#F2EADB"/>
  <rect x="134" y="606" width="144" height="9" rx="4.5" fill="#6F8498"/>
  <rect x="110" y="664" width="206" height="86" rx="22" fill="#132737"/>
  <rect x="134" y="690" width="74" height="10" rx="5" fill="#F2EADB"/>
  <rect x="134" y="712" width="136" height="9" rx="4.5" fill="#6F8498"/>
  <rect x="110" y="862" width="206" height="108" rx="24" fill="#12283A"/>
  <rect x="134" y="892" width="92" height="10" rx="5" fill="#F2EADB"/>
  <rect x="134" y="914" width="130" height="9" rx="4.5" fill="#6F8498"/>
  <rect x="388" y="78" width="1134" height="124" rx="28" fill="#0F1F2C"/>
  <rect x="432" y="118" width="230" height="15" rx="7.5" fill="#F2EADB"/>
  <rect x="432" y="146" width="400" height="12" rx="6" fill="#6F8498"/>
  <rect x="1220" y="112" width="124" height="40" rx="20" fill="#132737"/>
  <rect x="1362" y="112" width="116" height="40" rx="20" fill="#F4A259"/>
  <rect x="388" y="236" width="730" height="730" rx="32" fill="#0F1F2C"/>
  <rect x="428" y="276" width="650" height="84" rx="24" fill="#12283A"/>
  <rect x="460" y="304" width="118" height="10" rx="5" fill="#F4A259"/>
  <rect x="460" y="326" width="208" height="12" rx="6" fill="#F2EADB"/>
  <rect x="910" y="300" width="128" height="36" rx="18" fill="#132737"/>
  <rect x="428" y="392" width="300" height="154" rx="28" fill="#112130"/>
  <rect x="758" y="392" width="320" height="154" rx="28" fill="#112130"/>
  <rect x="452" y="424" width="84" height="11" rx="5.5" fill="#6F8498"/>
  <rect x="452" y="448" width="144" height="16" rx="8" fill="#F2EADB"/>
  <rect x="452" y="478" width="220" height="10" rx="5" fill="#6F8498"/>
  <rect x="452" y="499" width="192" height="10" rx="5" fill="#6F8498"/>
  <rect x="782" y="424" width="86" height="11" rx="5.5" fill="#6F8498"/>
  <rect x="782" y="448" width="162" height="16" rx="8" fill="#F2EADB"/>
  <rect x="782" y="478" width="248" height="10" rx="5" fill="#6F8498"/>
  <rect x="782" y="499" width="220" height="10" rx="5" fill="#6F8498"/>
  <rect x="428" y="578" width="650" height="348" rx="30" fill="#0C1720" stroke="#203242" stroke-width="2"/>
  <rect x="458" y="608" width="590" height="48" rx="18" fill="#12283A"/>
  <rect x="486" y="625" width="66" height="10" rx="5" fill="#F4A259"/>
  <rect x="888" y="620" width="128" height="22" rx="11" fill="#132737"/>
  <rect x="458" y="690" width="270" height="196" rx="24" fill="#132737"/>
  <rect x="752" y="690" width="296" height="196" rx="24" fill="#132737"/>
  <rect x="484" y="720" width="112" height="11" rx="5.5" fill="#F2EADB"/>
  <rect x="484" y="744" width="176" height="10" rx="5" fill="#6F8498"/>
  <rect x="484" y="772" width="214" height="16" rx="8" fill="#F2EADB"/>
  <rect x="484" y="804" width="198" height="10" rx="5" fill="#6F8498"/>
  <rect x="778" y="720" width="112" height="11" rx="5.5" fill="#F2EADB"/>
  <rect x="778" y="744" width="190" height="10" rx="5" fill="#6F8498"/>
  <rect x="778" y="772" width="214" height="16" rx="8" fill="#F2EADB"/>
  <rect x="778" y="804" width="224" height="10" rx="5" fill="#6F8498"/>
  <rect x="1150" y="236" width="372" height="730" rx="32" fill="#0F1F2C"/>
  <rect x="1188" y="276" width="296" height="46" rx="18" fill="#12283A"/>
  <rect x="1216" y="293" width="90" height="10" rx="5" fill="#F2EADB"/>
  <rect x="1188" y="350" width="296" height="466" rx="28" fill="#0C1720" stroke="#203242" stroke-width="2"/>
  <rect x="1216" y="380" width="240" height="24" rx="12" fill="#132737"/>
  <rect x="1216" y="428" width="154" height="10" rx="5" fill="#F4A259"/>
  <rect x="1216" y="454" width="206" height="18" rx="9" fill="#F2EADB"/>
  <rect x="1216" y="486" width="220" height="10" rx="5" fill="#6F8498"/>
  <rect x="1216" y="509" width="220" height="10" rx="5" fill="#6F8498"/>
  <rect x="1216" y="560" width="124" height="34" rx="17" fill="#F4A259"/>
  <rect x="1352" y="560" width="104" height="34" rx="17" fill="#132737"/>
  <rect x="1216" y="634" width="240" height="1" fill="#203242"/>
  <rect x="1216" y="664" width="90" height="10" rx="5" fill="#F2EADB"/>
  <rect x="1216" y="690" width="188" height="9" rx="4.5" fill="#6F8498"/>
  <rect x="1216" y="722" width="240" height="1" fill="#203242"/>
  <rect x="1216" y="752" width="90" height="10" rx="5" fill="#F2EADB"/>
  <rect x="1216" y="778" width="188" height="9" rx="4.5" fill="#6F8498"/>
  <rect x="1188" y="844" width="296" height="88" rx="24" fill="#12283A"/>
  <rect x="1216" y="874" width="132" height="11" rx="5.5" fill="#F2EADB"/>
  <rect x="1216" y="898" width="220" height="10" rx="5" fill="#6F8498"/>
</svg>
