<?xml version="1.0" encoding="UTF-8"?>
<svg width="240" height="80" viewBox="0 0 240 80" xmlns="http://www.w3.org/2000/svg">
  <defs>
    <linearGradient id="grad1" x1="0%" y1="0%" x2="100%" y2="0%">
      <stop offset="0%" stop-color="#1f6add"/>
      <stop offset="100%" stop-color="#f7b500"/>
    </linearGradient>
    <filter id="shadow" x="-20%" y="-20%" width="140%" height="140%">
      <feDropShadow dx="0" dy="4" stdDeviation="6" flood-color="#0d3d91" flood-opacity="0.4"/>
    </filter>
  </defs>
  <rect x="0" y="0" width="240" height="80" rx="12" fill="#0d3d91" opacity="0.05"/>
  <g filter="url(#shadow)" transform="translate(8,4)">
    <path d="M28 52c-2 0-4-4-4-6 0-3 1-6 7-6 3 0 6 1 8 3l-3 5c-1-1-3-2-5-2-2 0-5 1-5 3 0 1 1 3 2 3 1 0 2 0 3-1 0-1 0-2 1-2l4 1v4c-1 0-2 1-5 1z" fill="#fff"/>
  </g>
  <text x="70" y="40" font-family="Urbanist, sans-serif" font-size="26" fill="url(#grad1)" font-weight="700" letter-spacing="1">MARCELO</text>
  <text x="70" y="65" font-family="Urbanist, sans-serif" font-size="20" fill="#f7b500" font-weight="600">MÓVEIS</text>
</svg>
